<?xml version="1.0" standalone="yes"?>
<svg xmlns="http://www.w3.org/2000/svg" width="133" height="50" viewBox="0 0 133 50">
<path style="fill:#010202; stroke:none;" d="M0 0L0 500L500 500L500 0L0 0z"/>
<path style="fill:#52b737; stroke:none;" d="M201 126L201 127L227 127C219.95 129.084 201.326 124.079 196.603 129.357C192.471 133.976 192.66 158.268 197.318 162.435C201.704 166.358 221.403 166.078 226.985 164.427C235.471 161.918 236.229 134.096 230.566 128.434C225.038 122.905 208.328 126 201 126z"/>
<path style="fill:#cc4a2c; stroke:none;" d="M271 165L271 164C262.72 164 251.999 165.821 244.015 163.566C235.655 161.205 235.179 136.267 239.742 130.228C243.808 124.848 268.011 124.647 272.682 129.318C276.514 133.15 275 141.053 275 146C282.432 128.289 268.474 126 255 126C250.766 126 244.942 125.021 241.109 127.179C234.434 130.937 234.274 158.758 240.228 163.258C246.66 168.118 263.197 165 271 165M284.059 127.028C277.822 130.443 277.482 156.433 281.603 161.772C285.814 167.226 309.103 167.037 314.772 163.682C321.46 159.725 320.913 133.906 316.258 128.434C312.327 123.813 289.178 124.224 284.059 127.028z"/>
<path style="fill:#c5f5e6; stroke:none;" d="M200 127L200 128L227 128L200 127M242.109 127.742C235.753 130.476 235.6 156.697 239.742 161.566C243.696 166.214 265.515 165.562 270.945 163.397C278.307 160.462 277.825 134.574 273.397 129.318C269.545 124.747 247.386 125.473 242.109 127.742M196 132L197 132L200 129L196 132M228 128L229 129L228 128z"/>
<path style="fill:#52b737; stroke:none;" d="M198.667 129.333L199.333 129.667L198.667 129.333z"/>
<path style="fill:#010202; stroke:none;" d="M200.279 129.742C194.721 132.419 195.464 155.407 198.858 159.682C202.26 163.968 222.024 163.475 226.772 161.258C231.896 158.864 231.947 135.756 228.972 131.434C225.9 126.971 204.864 127.533 200.279 129.742z"/>
<path style="fill:#c5f5e6; stroke:none;" d="M229 129C232.546 137.368 235.157 161.08 223 162L223 163C234.76 162.618 232 150.753 232 142C232 137.454 233.077 131.88 229 129z"/>
<path style="fill:#cc4a2c; stroke:none;" d="M241 161L242 161C240.607 155.151 238.027 136.18 242.603 131.603C247.439 126.768 267.337 129.6 273 132C269.763 127.419 244.415 126.242 241.028 131.318C237.364 136.809 239.198 154.905 241 161z"/>
<path style="fill:#010202; stroke:none;" d="M307.999 129.599C302.778 129.69 288.815 127.733 284.742 131.028C280.996 134.059 281.328 157.31 285.318 159.972C290.209 163.236 304.227 161.465 309.981 160.941C318.167 160.196 318.918 129.408 307.999 129.599z"/>
<path style="fill:#52b737; stroke:none;" d="M229 130L230 131L229 130z"/>
<path style="fill:#010202; stroke:none;" d="M242.603 131.028C239.522 133.468 241 141.524 241 145C241 148.731 239.577 156.302 242.028 159.397C244.809 162.908 266.969 162.448 270.566 159.972C274.346 157.371 273 149.921 273 146C273 142.12 274.407 134.614 271.397 131.603C268.16 128.367 246.195 128.183 242.603 131.028z"/>
<path style="fill:#52b737; stroke:none;" d="M230 131L229 161L230 161C232.188 153.598 233.005 138.162 230 131z"/>
<path style="fill:#cc4a2c; stroke:none;" d="M273 133L273 137L274 137L273 133z"/>
<path style="fill:#c5f5e6; stroke:none;" d="M196 158L196 161L197 161L196 158z"/>
<path style="fill:#cc4a2c; stroke:none;" d="M272.333 158.667L272.667 159.333L272.333 158.667M275 158L275 161L276 161L275 158M271 160L272 161L271 160z"/>
<path style="fill:#c5f5e6; stroke:none;" d="M197 161L198 162L197 161z"/>
<path style="fill:#52b737; stroke:none;" d="M227.667 161.333L228.333 161.667L227.667 161.333z"/>
<path style="fill:#cc4a2c; stroke:none;" d="M243 161L243 162L271 162L243 161M274 161L275 162L274 161z"/>
<path style="fill:#c5f5e6; stroke:none;" d="M198 162L198 163L201 163L198 162z"/>
<path style="fill:#cc4a2c; stroke:none;" d="M273 162L274 163L273 162M272 163L273 164L272 163M199.044 170.742C191.441 173.84 191.523 199.815 195.858 205.772C199.917 211.349 221.975 210.656 227.981 208.258C235.05 205.435 236.081 178.011 231.258 172.653C226.806 167.708 204.901 168.356 199.044 170.742M242.044 170.742C234.616 173.769 234.36 199.973 238.742 205.772C242.892 211.262 264.915 210.734 270.981 208.397C278.194 205.617 278.662 179.311 274.821 173.394C271.045 167.578 247.917 168.349 242.044 170.742z"/>
<path style="fill:#c5f5e6; stroke:none;" d="M248 171L248 172L258 172L248 171M260 171L260 172L270 172L260 171z"/>
<path style="fill:#38b6ed; stroke:none;" d="M283 171L283 253C296.306 253 320.482 257.488 322.815 239C323.512 233.471 323.657 226.49 322.671 221C322.068 217.646 319.439 214.45 319.769 211C320.779 200.413 328.83 182.398 318.775 173.318C312.076 167.268 291.68 171 283 171z"/>
<path style="fill:#c5f5e6; stroke:none;" d="M241 172L239 176L240 176L241 172M271 172C274.642 178.621 278.088 201.359 269.941 205.821C264.109 209.015 253.503 207 247 207L247 208C253.712 208 266.205 210.39 271.852 206.258C278.041 201.728 277.122 175.979 271 172z"/>
<path style="fill:#010202; stroke:none;" d="M201.148 173.742C196.31 175.931 195.872 199.413 199.028 203.397C201.909 207.035 222.742 206.191 226.852 204.397C232.053 202.126 231.825 179.379 228.397 175.434C224.65 171.122 206.106 171.499 201.148 173.742M244.148 173.912C239.25 175.576 239.046 199.631 242.028 203.397C244.909 207.035 265.742 206.191 269.852 204.397C275.053 202.126 274.825 179.379 271.397 175.434C267.982 171.504 248.897 172.299 244.148 173.912z"/>
<path style="fill:#c5f5e6; stroke:none;" d="M286 174L286 247C293.702 247 307.065 249.568 313.942 245.821C323.605 240.556 320.175 217.635 313 212C318.953 205.301 322.675 180.853 313.891 174.742C307.645 170.397 293.084 172.685 286 174z"/>
<path style="fill:#38b6ed; stroke:none;" d="M292.603 180.028C289.784 182.261 291 188.849 291 192C291 196.155 289.732 202.878 291.603 206.682C293.746 211.037 307.508 209.691 310.775 207.258C316.118 203.278 317.798 185.15 312.566 180.603C309.693 178.107 304.51 178.998 301 179C298.531 179.001 294.689 178.376 292.603 180.028z"/>
<path style="fill:#010202; stroke:none;" d="M296 186C296 190.362 294.21 199.84 297.028 203.397C299.545 206.573 305.983 204.777 307.821 201.772C310.31 197.701 309 190.596 309 186L296 186z"/>
<path style="fill:#c5f5e6; stroke:none;" d="M239 203L243 207L243 206L239 203M244.667 207.333L245.333 207.667L244.667 207.333z"/>
<path style="fill:#52b737; stroke:none;" d="M200.044 214.653C192.373 217.218 191.93 243.789 196.09 249.772C199.958 255.335 222.076 254.654 227.956 252.258C235.384 249.231 235.64 223.027 231.258 217.228C226.988 211.579 206.282 212.566 200.044 214.653z"/>
<path style="fill:#cc4a2c; stroke:none;" d="M237 221L238 221C242.791 211.061 261.55 215 271 215C263.173 211.716 239.113 211.012 237 221z"/>
<path style="fill:#38b6ed; stroke:none;" d="M293.318 215.028C289.716 217.431 291 224.309 291 228C291 231.328 289.825 237.615 292.028 240.397C294.548 243.579 308.56 242.936 311.772 240.972C315.719 238.559 314.999 232.945 315 229C315.004 217.997 305.452 206.931 293.318 215.028z"/>
<path style="fill:#c5f5e6; stroke:none;" d="M201 215L201 216C208.333 216 219.115 214.001 225.981 216.742C232.239 219.241 231 226.536 231 232C231 236.927 232.509 244.855 228.682 248.682C223.185 254.18 200.552 252.768 197 246C195.26 254.378 223.748 253.893 228.772 250.821C234.454 247.346 234.422 219.912 228.772 216.457C222.135 212.399 208.577 215 201 215M241.133 216.028C234.539 219.822 234.669 244.494 239.514 249.682C243.476 253.925 265.862 254.438 270.891 251.682C276.984 248.344 277.702 222.428 273.397 217.318C269.638 212.857 246.042 213.203 241.133 216.028z"/>
<path style="fill:#cc4a2c; stroke:none;" d="M272 215L273 216L272 215z"/>
<path style="fill:#c5f5e6; stroke:none;" d="M196 221L197 221L200 217L196 221z"/>
<path style="fill:#cc4a2c; stroke:none;" d="M273 216L274 217L273 216z"/>
<path style="fill:#010202; stroke:none;" d="M201.134 217.742C194.389 220.706 195.542 242.51 199.027 247.682C201.956 252.029 222.305 251.344 226.772 249.258C232.029 246.802 231.845 223.828 228.821 219.434C225.708 214.911 205.803 215.691 201.134 217.742z"/>
<path style="fill:#52b737; stroke:none;" d="M227.667 217.333L228.333 217.667L227.667 217.333z"/>
<path style="fill:#cc4a2c; stroke:none;" d="M240 221L241 221C246.847 215.029 262.046 218 270 218C263.687 215.351 243.544 214.572 240 221M274 217L275 218L274 217z"/>
<path style="fill:#52b737; stroke:none;" d="M229 218L229 249L230 249C232.08 241.963 233.521 223.968 229 218z"/>
<path style="fill:#010202; stroke:none;" d="M242.434 219.028C238.654 221.629 240 229.079 240 233C240 236.88 238.593 244.386 241.603 247.397C244.84 250.633 266.805 250.817 270.397 247.972C273.478 245.532 272 237.476 272 234C272 230.269 273.423 222.698 270.972 219.603C268.191 216.092 246.031 216.552 242.434 219.028z"/>
<path style="fill:#cc4a2c; stroke:none;" d="M271 218L272 219L271 218M275 219L275 248L276 248L275 219M272 220L272 247L273 247L272 220z"/>
<path style="fill:#010202; stroke:none;" d="M296 239C299.408 239 304.711 239.955 307.682 237.972C311.274 235.575 311.167 224.652 308.258 221.742C305.845 219.329 298.31 218.85 296.603 222.318C294.507 226.577 296 234.315 296 239z"/>
<path style="fill:#cc4a2c; stroke:none;" d="M239.333 240.667L239.667 241.333L239.333 240.667M237 246L237 249L238 249L237 246M240 247L240 249L242 249L240 247M271 248L272 249L271 248M274.333 248.667L274.667 249.333L274.333 248.667z"/>
<path style="fill:#52b737; stroke:none;" d="M200 250L200 251L229 250L200 250z"/>
<path style="fill:#cc4a2c; stroke:none;" d="M238 249L241 252L238 249M242 249L242 250L270 250L242 249M273 250L274 251L273 250M272 251L273 252L272 251M241 252L241 253L260 253L241 252M269 252L269 253L272 253L269 252z"/>
<path style="fill:#38b6ed; stroke:none;" d="M236.109 274.786C231.233 276.544 232.002 282.89 232 287C231.995 299.434 230.719 312.646 232.109 324.999C232.57 329.096 235.316 332.74 239.892 331.547C245.136 330.179 244 323.104 244 319C244.001 306.486 245.042 293.467 243.941 281.004C243.588 276.997 240.589 273.171 236.109 274.786M273 274.44C250.907 277.981 243.278 308.998 258.213 324.895C266.313 333.517 280.673 333.774 291 329.546C298.769 326.366 306.466 307.721 296.852 302.028C292.592 299.506 273.183 298.999 276.623 307.853C278.611 312.97 286.861 308.839 288.248 314.133C290.285 321.904 274.833 321.692 271.015 319.258C260.106 312.3 261.051 285.185 277 285.374C283.964 285.457 289.227 299.221 295.771 294.381C300.578 290.826 297.917 283.818 294.606 280.214C289.575 274.736 280.006 273.317 273 274.44M320 308L339 308C339 313.849 337.395 322.473 339.603 327.941C341.381 332.341 347.348 333.026 349.821 328.852C354.564 320.846 351 302.2 351 293C351 288.432 352.307 281.286 349.821 277.228C347.606 273.614 342.256 273.591 340.028 277.228C337.255 281.754 339 290.835 339 296L320 296C320 290.429 321.536 281.952 318.142 277.148C309.339 264.688 307 288.604 307 293C307 302.442 303.528 320.542 308.318 328.852C310.909 333.346 317.023 332.379 318.991 327.941C321.473 322.344 320 314.013 320 308M137.109 275.742C129.84 278.868 133 296.528 133 303C133 309.583 130.608 322.076 134.028 327.852C137.742 334.124 161.07 331.972 166.996 329.517C182.715 323.004 171.699 310.944 170.932 301C170.52 295.661 174.892 291.919 173.21 286C169.727 273.747 147.61 271.226 137.109 275.742M214 306C227.186 301.514 228.06 280.166 214 275.943C207.95 274.126 187.1 272.115 183.318 278.279C179.352 284.74 182 298.612 182 306C182 312.02 179.425 326.056 184.434 330.397C197.301 341.548 191.934 308.639 198.069 308.89C207.869 309.292 208.813 326.815 216.185 330.971C221.626 334.039 225.57 329.24 224.617 324C223.361 317.098 218.591 311.03 214 306M369 286C371.267 295.521 370 306.251 370 316C370 320.286 369.142 326.074 372.009 329.682C375.708 334.336 381.854 330.935 382.772 325.995C385.037 313.799 383 299.411 383 287C387.018 287 392.133 287.634 395.772 285.566C399.911 283.213 399.049 277.531 394.891 275.742C387.21 272.438 368.224 273.666 360.019 275.228C355.406 276.107 353.135 281.899 357.314 285.051C360.498 287.452 365.472 287.018 369 286z"/>
<path style="fill:#c5f5e6; stroke:none;" d="M291 309C290.998 324.066 274.021 329.951 264.51 316.985C256.49 306.052 261.131 283.418 276.715 282.88C284.74 282.604 285.728 288.665 291.451 291.914C293.782 293.238 295.652 291.315 295.458 288.941C293.956 270.616 265.967 275.386 258.853 286.001C243.668 308.661 266.939 343.895 292.941 325.867C297.23 322.893 300.132 307.778 295.397 304.028C292.897 302.048 281.058 301.777 279.086 304.584C275.356 309.896 288.906 309 291 309M163 302C179.164 289.539 165.547 277 150 277C146.613 277 141.275 276.127 138.603 278.742C134.75 282.514 137 294.961 137 300C137 306.629 134.28 321.065 138.028 326.682C141.224 331.471 159.254 329.72 163.999 327.852C175.571 323.297 175.855 304.601 163 302M236 329C242.546 327.908 241 321.335 241 316C241 303.494 242.904 289.197 240 277C234.764 278.721 235.002 284.149 235.002 289C235.002 302.137 234.972 315.968 236 329M317 305L342 305L342 316C342 318.336 344.837 335.434 347.682 325.851C350.721 315.613 348 300.69 348 290C348 287.284 349.466 277.867 345 277.867C339.14 277.867 343.767 293.958 340.397 297.258C335.616 301.938 324.018 297.826 318 299C317.12 295.305 317.003 291.79 317 288C316.998 285.751 315.718 272.621 311.027 279.337C309.014 282.219 310 287.676 310 291C310 301.384 307.348 315.911 310.318 325.851C311.336 329.259 315.077 328.865 316.397 325.851C317.747 322.766 317 318.291 317 315L317 305M191 306C200.733 306.006 205.484 308.583 210.771 317C212.811 320.249 214.615 326.072 218.194 327.914C222.831 330.299 222.314 324.511 221.171 321.999C218.246 315.57 213.901 310.008 209 305C219.567 303.086 225.689 289.487 216.775 281.419C211.288 276.452 195.024 276.277 188.148 278.318C184.118 279.515 185.001 284.709 185 288L185 317C185 319.73 183.759 327.122 187.259 328.248C192.859 330.051 191 309.259 191 306M373 284L373 318C373.001 320.648 372.176 328.816 376.91 328.079C380.9 327.457 379.999 320.769 380 318L380 284C381.807 284 399.877 284.169 394.199 279.023C390.215 275.412 375.229 278 370 278C368.334 278 353.737 278.16 359.623 282.977C362.49 285.324 369.495 284 373 284z"/>
<path style="fill:#38b6ed; stroke:none;" d="M143 283L143 299C148.053 299 155.302 300.272 159.856 297.682C164.673 294.943 164.281 287.832 159.867 284.938C155.264 281.922 148.223 283 143 283M191 284L191 300C196.783 300 205.639 301.64 210.775 298.543C215.435 295.734 215.659 287.985 210.856 285.179C205.849 282.254 196.635 284 191 284z"/>
<path style="fill:#010202; stroke:none;" d="M145 286L145 297C148.432 297 170.702 294.9 159.566 287.179C156.01 284.714 149.127 286 145 286M195.614 287.028C186.686 294.243 202.904 301.537 209.682 296.142C218.722 288.946 201.241 282.48 195.614 287.028z"/>
<path style="fill:#38b6ed; stroke:none;" d="M143 305L143 323C148.382 323 156.01 324.343 160.892 321.682C166.719 318.507 166.733 309.694 160.892 306.573C155.794 303.849 148.579 305 143 305z"/>
<path style="fill:#010202; stroke:none;" d="M146.603 308.028C137.189 315.483 152.495 325.353 160.721 319.142C170.465 311.784 152.993 302.968 146.603 308.028z"/>
<path style="fill:#52b737; stroke:none;" d="M371 329L372 330L371 329M340 330L341 331L340 330z"/>
<path style="fill:#38b6ed; stroke:none;" d="M196 368C189.332 377.38 173.137 380.093 171.229 365C169.511 351.407 183.339 351.345 191.995 353.347C194.431 353.911 198.103 353.413 197.248 349.985C193.357 334.38 168.119 346.696 164.563 356C156.704 376.565 183.426 393.887 198.812 377.895C202.169 374.405 205.534 368.111 203.396 363.148C201.583 358.941 190.584 358.458 187.623 361.603C182.545 366.995 193.129 367.99 196 368M216 368C224.857 368.031 226.136 372.092 230.619 378.981C232.05 381.181 234.591 384.715 237.671 382.914C243.067 379.757 233.922 369.889 233.359 366C232.781 362.008 235.294 358.145 234.887 354C233.857 343.513 222.344 342.319 214.005 343.059C204.151 343.933 208 364.785 208 372C208 375.136 207.009 381.019 210.302 382.914C217.227 386.897 216 370.971 216 368M256 343.468C229.042 348.431 237.118 388.479 264 383.671C289.307 379.144 281.163 338.836 256 343.468M286.299 344.176C282.371 346.092 284 355.479 284 359C284 370.917 286.274 390.204 303.999 382.991C315.251 378.412 313.001 364.767 313 355C313 351.807 314.121 343.867 309.05 343.867C305.001 343.867 305.043 349.192 305.004 352C304.924 357.715 307.892 378.126 297.015 375.878C287.929 374 291.118 357.527 290.995 351C290.95 348.605 290.432 342.159 286.299 344.176M324 368C329.408 368 335.42 368.686 339.657 364.606C347.535 357.018 342.251 344.56 332 343.188C314.002 340.78 316 351.797 316 366C316 370.098 314.182 380.435 318.429 382.914C325.341 386.947 324 370.933 324 368z"/>
<path style="fill:#c5f5e6; stroke:none;" d="M188 363L188 365L199 367C196.908 370.629 194.551 373.932 190.999 376.297C174.635 387.195 159.743 359.354 178.001 350.179C184.239 347.044 189.873 351.723 196 351C176.583 328.428 148.928 374.018 179 381.316C182.282 382.112 185.744 382.15 189 381.211C193.134 380.017 196.713 377.551 199.146 373.985C206.218 363.616 197.061 360.322 188 363M213 382L213 366C217.384 366 223.041 364.997 226.471 368.318C230.463 372.182 231.722 381.104 238 381C236.027 376.263 230.556 370.079 230.402 365C230.236 359.556 235.281 355.705 231.397 350.058C228.461 345.789 214.968 341.628 211.028 346.603C209.376 348.689 210.001 352.531 210 355C209.997 361.601 207.016 378.12 213 382M257 345.507C232.726 349.022 238.859 385.952 263 381.671C285.481 377.684 279.63 342.23 257 345.507M287 345C284.85 352.274 283.722 369.075 287.457 375.906C291.553 383.397 303.382 383.689 308.272 376.892C313.712 369.331 311 354.824 311 346L307 347C308.728 354.26 309.682 366.088 306.231 372.957C303.176 379.039 295.893 380.198 291.434 374.867C284.63 366.732 293.181 353.159 287 345M319 382L321 382L322 366C325.576 366 329.491 366.421 332.996 365.606C354.255 360.66 329.289 334.059 319.028 346.742C315.878 350.636 318 362.174 318 367C318 372.037 317.565 377.146 319 382z"/>
<path style="fill:#52b737; stroke:none;" d="M340 347L341 348L340 347z"/>
<path style="fill:#38b6ed; stroke:none;" d="M213 349C213 352.357 211.821 358.611 214.028 361.397C221.549 370.891 239.977 350.07 221.999 348.599C219.016 348.355 215.976 348.819 213 349M322 348L322 363C327.252 362.999 346.179 359.453 335.682 350.603C332.527 347.943 325.96 348.735 322 348M254.001 349.653C235.722 355.412 246.081 384.188 264 378.146C282.802 371.806 272.878 343.705 254.001 349.653z"/>
<path style="fill:#010202; stroke:none;" d="M216 351L216 360C229.635 359.999 229.635 351.001 216 351M255.004 351.653C239.282 356.638 247.803 381.121 262.999 376.142C278.987 370.904 271.193 346.52 255.004 351.653M324 351L324 360C337.825 359.998 337.825 351.002 324 351z"/>
</svg>
